<svg xmlns="http://www.w3.org/2000/svg" viewBox="0 0 499.84 87.65"><defs><style>.cls-1{fill:#fff;}</style></defs><g id="Layer_2" data-name="Layer 2"><g id="Layer_1-2" data-name="Layer 1"><path class="cls-1" d="M63.75,6h0l.35-1.92A3.44,3.44,0,0,0,60.72,0H19.21a3.45,3.45,0,0,0-3.4,2.87L15.29,6,13.65,16.52c-.06.36-.12.69-.16,1l-.4,2.5a2.41,2.41,0,0,0,2.38,2.79H35L30.29,52.38c-1.28,8.2-4.57,11.72-11,11.72A30.46,30.46,0,0,1,8.85,62,8.12,8.12,0,0,0,8,61.72L7,61.38A3.44,3.44,0,0,0,2.5,64.12l-.33,2.09C1.21,72.37.71,75.63.46,77.42h0L0,80.14a3.43,3.43,0,0,0,2.22,3.75l2.3.84.31.11A48.64,48.64,0,0,0,22,87.65c20.51,0,30.24-8.67,33.64-30.11L63.69,6.33Z"/><path class="cls-1" d="M260.24,23.73l-2.62-1.41c-3.32-1.85-10-3.34-15.11-3.34-18.87,0-31.29,10.32-34.93,32.82a58.51,58.51,0,0,0-.7,8.67c0,17.46,10.31,27.18,28.83,27.18a31.73,31.73,0,0,0,9.38-1.52h0l8.72-2.79a2.9,2.9,0,0,0,2-3L254.49,66a2.92,2.92,0,0,0-3.87-2.47l-5.53,2a24.11,24.11,0,0,1-6.45,1.4c-4.34,0-6.33-2.34-6.33-6.68a41.28,41.28,0,0,1,.7-6.79c1.64-10.2,4.93-13.95,10-13.95a15.85,15.85,0,0,1,6.92,1.64l1.53.83a3.44,3.44,0,0,0,4.78-1.6l1.19-2.63,3-6.79,1.29-2.71A3.45,3.45,0,0,0,260.24,23.73Z"/><path class="cls-1" d="M388.19,23.57c-.42-.25-.89-.5-1.39-.74h0C382.46,20.75,375.14,19,367.1,19c-20,0-29.88,11-29.88,23.56,0,8.55,4.57,14.76,15,17.81l7.15,2.11c2.46.7,3.39,1.64,3.39,3.05,0,2.11-1.87,3.28-6.91,3.28-6.21,0-10.78-1.76-14.76-3.4l-3-1.24a3.44,3.44,0,0,0-4.63,2.21l-.61,2.08L331,75.11c-.05.18-.09.35-.13.51l-.76,2.92a3.45,3.45,0,0,0,2.27,4.13l6.15,2h0a57.94,57.94,0,0,0,18.6,3c18.16,0,31.05-8.79,31.05-24,0-9.14-4.68-14.53-15-17.58l-6.32-1.87c-2.7-.82-4.22-1.41-4.22-3.17s1.64-3.16,6.68-3.16a31.92,31.92,0,0,1,10.66,2L382.94,41a3.43,3.43,0,0,0,4.38-1.77l.36-.79h0q.26-.47.51-1L390.54,32l1.32-2.71a3.44,3.44,0,0,0-1.48-4.55Z"/><path class="cls-1" d="M420.14,58.1l6.31.61a44.12,44.12,0,0,0,10.14-.52C449,56,456.82,50.12,456.82,38.9,456.82,26,446.51,19,430.34,19c-19.69,0-32,10.55-35.51,32.82a57.2,57.2,0,0,0-.7,8.67c0,17.46,11.48,27.18,30.12,27.18a50.92,50.92,0,0,0,18.89-3.27h0l.07,0,.69-.28,4.71-1.91a3.45,3.45,0,0,0,2.14-3.38l-.18-3.1c0-.44,0-.9-.08-1.39l-.46-6-.06-.64-.11-1.2a3.45,3.45,0,0,0-4.67-2.89l-2.94,1.14a34.52,34.52,0,0,1-13.2,2.89c-6.8,0-9.38-2.23-9.38-7.5v-1.6A.42.42,0,0,1,420.14,58.1ZM420,46.82c2.22-10.19,7.51-11.29,9.69-11.29,3.23,0,5,1.78,5,5,0,5.54-5.43,6.58-9.53,6.89l-5.4.44Z"/><path class="cls-1" d="M327.08,20.39H315.59a3.44,3.44,0,0,0-3.36,2.69l-.52,2.35C308,21.21,301.16,19,294,19c-15.94,0-28,10-31.17,32.93-.47,3.05-.76,5.68-1,8.48-1.27,15.14,5.46,27.26,20.57,27.26,6.92,0,14.06-3.51,17.11-7.73l-.4,2.3a3.44,3.44,0,0,0,3.39,4h15.15a3.45,3.45,0,0,0,3.4-2.92l.49-3.18,8.55-53.67.37-2.05A3.44,3.44,0,0,0,327.08,20.39ZM299.46,64.67l-.14.17c-2,2.45-5.51,2.72-6.93,2.72-2.82,0-6.19-1.36-6.19-7.83a38.73,38.73,0,0,1,.74-6.89l.13-.78c.92-6.09,3.52-13.37,10.69-13.37a7.17,7.17,0,0,1,5.14,1.88l.29.28Z"/><path class="cls-1" d="M100.68,19c-21.1,0-32.35,10.32-36,32.82a52.48,52.48,0,0,0-.7,8.67c0,17.46,10.31,27.18,28.94,27.18,21.1,0,32.35-10.31,36-32.81a52.48,52.48,0,0,0,.7-8.67C129.62,28.71,119.31,19,100.68,19Zm4.26,34.34c-1.63,9.87-4,16-10.58,16-4.35,0-6.46-2.75-6.46-8.4a45.93,45.93,0,0,1,.78-7.6c1.63-9.87,4-16,10.58-16,4.35,0,6.46,2.74,6.46,8.39A45.93,45.93,0,0,1,104.94,53.32Z"/><path class="cls-1" d="M180.6,19a16.86,16.86,0,0,0-13.36,6.1l2.93-18.75.43-2.24A3.43,3.43,0,0,0,167.23,0H148.74a3.44,3.44,0,0,0-3.4,2.91L144.86,6,133.14,80.15l-.33,2.13a3.45,3.45,0,0,0,3.4,4h11.6a3.44,3.44,0,0,0,3.4-2.91l.33-2.13c3.75,4.22,10.55,6.44,17.7,6.44,15.93,0,28-10,31.17-32.93a56.93,56.93,0,0,0,.58-8.78C201,30.47,194.55,19,180.6,19Zm-4.95,35.4C174.27,63.51,171,68,165.49,68a7.16,7.16,0,0,1-5.14-1.88l-.29-.29L163.79,42l.14-.17a8,8,0,0,1,6.24-3.11c2.83,0,6.19,1.36,6.19,7.83A44.81,44.81,0,0,1,175.65,54.38Z"/><path class="cls-1" d="M469.47,85.88V69.69H463a.34.34,0,0,1-.35-.35V67.91a.35.35,0,0,1,.35-.35h15.53a.35.35,0,0,1,.35.35v1.43a.34.34,0,0,1-.35.35H472V85.88a.35.35,0,0,1-.35.35h-1.85A.35.35,0,0,1,469.47,85.88Z"/><path class="cls-1" d="M489.78,86.23a.35.35,0,0,1-.33-.24l-5.58-15.82h-.12V85.88a.35.35,0,0,1-.35.35h-1.7a.35.35,0,0,1-.35-.35v-18a.35.35,0,0,1,.35-.35h3.52a.35.35,0,0,1,.33.24l5.17,15h.08l4.9-15a.35.35,0,0,1,.33-.24h3.46a.35.35,0,0,1,.35.35v18a.35.35,0,0,1-.35.35h-1.88a.35.35,0,0,1-.35-.35V70.17h-.12L491.77,86a.35.35,0,0,1-.33.24Z"/></g></g></svg>